PathFileType	4	(X/Y/Z)	C:\Users\WrightLab\Desktop\Jo\P3_19.trc
DataRate	CameraRate	NumFrames	NumMarkers	Units	OrigDataRate	OrigDataStartFrame	OrigNumFrames
100.00	100.00	       11	19	mm	100.00	275	       731
Frame#	Time	Headset_Front			Headset_Back			Headset_Left			Headset_Right			Left_Shoulder			Right_Shoulder			Sternum			C7			Left Elbow			Right Elbow			Left Wrist			Right Wrist			Left ASIS			Right ASIS			S2			Left Knee			Right Knee			Left Ankle			Right Ankle			
		X1	Y1	Z1	X2	Y2	Z2	X3	Y3	Z3	X4	Y4	Z4	X5	Y5	Z5	X6	Y6	Z6	X7	Y7	Z7	X8	Y8	Z8	X9	Y9	Z9	X10	Y10	Z10	X11	Y11	Z11	X12	Y12	Z12	X13	Y13	Z13	X14	Y14	Z14	X15	Y15	Z15	X16	Y16	Z16	X17	Y17	Z17	X18	Y18	Z18	X19	Y19	Z19	

275	2.740	-353.20920	1494.31897	230.66402	-490.54077	1593.58142	-20.69898	-341.27841	1539.36816	26.59274	-493.57938	1533.52612	192.55629	-349.26523	1302.27087	-60.70329	-637.44232	1353.40759	148.38889	-426.27148	1206.09753	149.00031	-522.95154	1382.34814	1.82052	-302.62323	966.43054	-50.93190	-756.25067	1025.13037	204.77228	-252.13258	808.53967	77.91803	-692.86029	839.80194	325.03067	-394.48697	843.79803	57.41274	-572.05371	868.87134	232.68214	-627.67822	935.29059	-12.75446	-506.04791	431.30444	-2.06350	-483.08282	475.52234	322.60956	-599.50201	112.56602	-25.12285	-486.94794	136.50032	330.26495	
276	2.750	-348.34171	1494.12061	237.15221	-486.36505	1592.44128	-14.13560	-337.03815	1538.91125	33.32354	-489.31979	1533.03333	199.37079	-344.69214	1301.48901	-54.18548	-632.51563	1352.40527	156.17073	-421.15356	1205.31396	155.28307	-518.08881	1381.13452	9.25912	-297.33121	965.60376	-43.46365	-750.77966	1023.89594	212.41830	-246.86748	808.23291	83.42132	-687.08698	839.38574	332.79700	-388.70734	843.60443	65.17140	-566.79700	868.00983	240.42026	-622.62604	934.28998	-5.66057	-503.13736	431.00616	1.45749	-478.43665	473.44418	327.11749	-599.27411	113.03537	-24.56256	-466.80975	136.16341	344.49835	
277	2.760	-343.86545	1493.36011	244.03020	-482.06854	1591.86646	-7.14407	-332.86456	1538.46008	39.98076	-485.42865	1532.75146	206.48074	-339.79721	1300.80103	-47.23321	-627.44299	1350.96887	163.24661	-415.58289	1204.12061	162.47696	-513.49261	1380.47571	16.02648	-291.49033	964.99847	-36.62560	-745.28125	1022.14001	220.28806	-241.62015	807.02905	90.89584	-681.72302	838.60529	341.25528	-382.76401	842.36963	71.66345	-560.31366	866.32233	247.34641	-617.09460	933.44983	1.20020	-500.46185	430.61938	4.96397	-471.92587	471.14786	330.01428	-598.25616	113.81084	-23.44466	-447.46405	135.00934	357.34143	
278	2.770	-339.24738	1492.68188	250.92239	-477.86230	1590.63647	0.08361	-327.92505	1537.20752	47.97007	-480.79150	1531.38208	213.54280	-334.95837	1300.41101	-40.56559	-621.94409	1349.75452	169.73688	-409.29428	1203.08862	168.26642	-508.69382	1379.02930	22.59052	-286.35541	964.45044	-29.21388	-739.75708	1020.67761	227.75381	-236.77754	806.47565	97.89069	-675.84833	837.88275	349.59540	-377.30536	841.11932	78.71166	-554.03351	865.09357	254.92749	-611.50061	932.14978	9.09576	-496.85861	430.38882	8.19513	-467.24612	468.48135	333.39313	-597.62439	113.85792	-22.32570	-429.87518	135.62578	369.86429	
279	2.780	-334.27481	1491.49902	257.83490	-473.68472	1589.48230	7.14079	-324.34961	1537.02026	52.73420	-476.40372	1530.79077	220.62744	-330.11685	1299.69824	-32.85812	-617.03949	1348.50098	177.84004	-404.05609	1202.44128	175.80948	-504.29123	1378.29675	30.31805	-280.32782	963.75342	-22.29987	-734.23138	1019.33905	235.17397	-231.71719	805.23859	104.51792	-670.24207	837.46802	358.28180	-371.44513	840.03113	84.91328	-547.54358	861.94885	259.52539	-605.63385	930.77808	17.24580	-493.37247	429.82089	12.24529	-461.74063	465.99487	336.41763	-596.94763	114.06516	-20.40154	-412.10403	134.99117	380.55670	
280	2.790	-330.80194	1491.09363	265.49371	-469.57831	1588.06470	14.64550	-319.74402	1535.80066	59.74996	-471.75977	1529.38354	227.90685	-325.81177	1298.84229	-26.52942	-611.89838	1347.15637	184.76630	-398.97421	1202.10083	183.01129	-499.64209	1376.82190	37.07987	-273.20407	963.31116	-14.91156	-728.27673	1017.63483	242.74425	-226.31155	804.10663	110.92720	-663.86401	836.45801	366.75177	-365.56955	839.05957	90.94102	-540.14185	862.33801	270.23630				-488.98071	429.85876	17.59906	-456.23187	463.48676	339.72040	-594.17340	114.31642	-19.39507	-397.39990	136.45653	390.52573	
281	2.800	-325.87729	1489.90918	272.69434				-315.61630	1534.63867	67.43878	-467.43503	1528.16089	235.45262	-320.88336	1298.06299	-19.32326	-607.28705	1345.87402	191.98116	-393.45581	1200.89124	189.96442	-495.10309	1375.51282	43.86810	-269.19229	962.97070	-8.03992	-722.28778	1016.36334	250.17780	-221.16652	803.44379	117.95178	-658.07678	835.74854	375.16534	-359.12122	838.44336	97.35406	-533.69006	861.24713	278.40927	-593.57684	928.13965	32.22944	-484.71204	429.75903	21.28817	-450.65320	461.69162	343.48172	-594.78754	115.49025	-18.70894	-382.80692	136.49149	398.48233	
282	2.810	-320.98743	1488.80383	280.01157	-461.21790	1586.31799	29.39436	-311.50540	1533.48230	75.10322	-462.99481	1527.92529	243.28105	-315.84821	1297.91370	-12.41670	-602.52448	1344.83716	199.10637	-388.22501	1199.82739	197.22322	-490.94467	1374.27881	51.43744	-263.57175	962.77429	-0.28659	-716.14862	1014.47327	257.75418	-215.46120	802.34790	124.81575	-651.86884	835.05219	383.45764	-352.60019	836.71173	105.05230	-527.06348	859.69141	288.12616	-587.54608	926.35815	40.36642	-480.41943	429.03757	26.63708	-444.09210	459.25177	348.22467	-593.54669	116.74885	-17.72274	-371.10464	136.99048	404.98096	
283	2.820				-457.14594	1585.21167	37.07433	-307.21790	1532.49609	82.25389	-458.02209	1526.63733	250.83504	-311.91943	1297.59509	-5.53076	-597.77631	1343.29639	205.93509	-382.57779	1199.34351	204.20288	-486.43600	1372.81348	58.38310	-258.18716	962.21265	6.53202	-710.70746	1012.99805	265.13412	-210.59587	801.12280	131.71005	-645.48358	834.31183	391.80948	-346.04266	835.78235	112.62421	-518.66089	857.72394	293.98090	-581.18433	924.89264	48.64312	-475.80969	428.60614	30.02258	-437.54205	457.06326	353.57272	-592.32550	117.58591	-16.10139	-361.64801	135.89401	409.80096	
284	2.830				-452.98840	1584.61279	45.16810	-303.26379	1531.38965	91.07564	-453.88504	1525.98804	259.20627	-306.77499	1296.61902	1.28434	-593.15814	1342.08606	212.87567	-376.55881	1199.31946	211.56558	-481.90118	1371.66162	65.68040	-251.84705	961.72614	13.85905	-704.46564	1011.28101	272.79865	-205.92670	800.38794	138.11775	-639.19653	833.08588	400.24634	-339.11102	834.78534	119.96646	-511.82385	854.83539	299.57083	-574.78406	923.37213	56.79647	-471.23596	427.94296	34.69477	-430.68045	455.85672	359.77573	-591.04437	118.69209	-14.35078	-352.93311	134.10483	412.86047	
285	2.840	-307.75061	1485.67749	303.51157	-448.74420	1583.94812	53.53777	-298.67450	1530.35522	98.59591	-449.37946	1525.12231	267.25845	-302.14685	1296.56274	8.72643	-588.61926	1340.73047	219.87724	-370.94745	1198.30066	218.69786	-477.52396	1370.58740	73.45649	-246.62758	961.72766	20.49474	-698.36310	1009.82977	280.21933	-200.60033	799.64813	143.93214	-632.70813	832.58722	408.45221	-332.00955	833.46210	128.50847	-503.92148	854.84985	310.09769	-568.10242	922.44000	64.12523	-466.29572	426.94623	40.33707	-423.43353	454.48825	365.59695	-589.53290	119.94464	-14.15176	-347.72253	131.05147	414.66202	
